<svg width="2584" height="508" viewBox="0 0 2584 508" fill="none" xmlns="http://www.w3.org/2000/svg">
<path d="M497 333C498.21 334.15 488.19 354.81 484.75 356.25C481.99 357.41 469.35 358.64 465.49 358.99C459.06 359.56 448.06 357.59 442.61 361.11C439.79 362.94 426.76 383.71 422.97 388.47C418.98 393.5 411.82 397.08 411.96 404.44C412.12 412.88 415.39 424.67 415.98 433.51C416.19 436.56 416.51 443.5 415.47 445.98C414.43 448.46 387.75 464.48 383.3 466.81C380.92 468.06 376.88 470.87 374.5 471.08C367.81 471.69 353.18 458.91 346.3 455.19C342.79 453.3 339.19 451.34 335.41 450.03L290.17 458.67C285.89 460.26 281.41 466.38 278.58 470.08C273.87 476.22 267.86 488.97 262.99 493.49C261.59 494.79 260.4 495.75 258.4 495.98L217.59 490.9C216.16 490.56 214.2 490.33 213.05 489.44C208.86 486.23 204.64 454.01 199.01 446.48C196.15 442.66 187.57 440.11 182.98 437.51C178.39 434.91 173.62 432.21 169.09 429.4C166.09 427.54 161.21 422.74 158.75 421.74C148.88 417.74 121.13 429.67 109.75 430.77L106.36 428.62C99.65 417.5 87.59 408.42 80.6 397.88C79.07 395.57 77.16 393.84 78.19 390.72L95.54 354C97.2 347.92 90.73 339.22 88.35 333.13C85.97 327.04 79.72 305.32 77.03 302.45C71.22 296.26 47.98 290.77 39.68 284.8C36.63 282.61 36.32 282.33 35.95 278.53C34.42 262.92 37.94 245.86 37.15 230.11C47.59 226.53 58.34 222.59 68.37 217.83C71.36 216.41 76.39 214.32 78.56 212.02C82.56 207.79 85.49 194.52 87.98 188.44C90.47 182.36 96.81 172.43 97.84 166.2C98.87 159.97 84.46 136.43 81.53 128.95C80.52 126.38 78.73 122.75 79.73 120.27C88.26 111.23 95.84 100.81 104.5 91.9501C111.61 84.6701 112.24 85.5701 122.24 87.2301C127.28 88.0701 132.2 91.2201 134.78 91.8801C138.47 92.8201 153.08 95.8401 156.07 95.5201C161.25 94.9601 169.3 87.5901 174.34 84.7901C181.34 80.9001 197.5 74.8101 201.44 68.8901C206.06 61.9501 209.75 31.3001 213.01 28.4601C215.72 26.1001 222.98 27.3601 226.5 26.9501C238.93 25.4901 251.6 22.2101 263.99 22.4601C270.62 30.6601 275.05 40.6001 281.2 49.2801C282.8 51.5401 285.82 56.4601 287.47 58.0101C292.38 62.6501 303.97 61.8701 310.27 63.2101C319.71 65.2201 328.82 69.3101 338.46 69.9401L374.07 48.5101C376.41 47.3501 379.22 47.7701 381.37 49.1201C393.73 58.1801 408.35 64.7401 419.81 74.6701C420.19 76.9201 420.14 79.2401 420.05 81.5101C419.64 91.6401 414.68 104.36 414.07 114.6C413.6 122.56 420.92 127.16 424.99 132.49C431.39 140.89 437.26 150.9 443.58 158.9C447.37 163.7 455.57 164.14 461.53 164.95C469.56 166.04 479.68 165.61 487.5 166.98C491.71 167.72 493.46 175.87 494.74 179.74C496.02 183.61 502.53 207.46 501.92 209.31C501.49 210.61 500.71 210.73 499.52 210.95C494.49 211.89 482.3 211.13 476.47 211C456.07 210.53 434.86 211.08 414.48 209.99C411.81 209.85 402.37 209.25 400.71 208.76C397.82 207.9 397.25 202.3 395.88 199.59C362.79 134.21 289.77 102.08 220.04 131.46C124.7 171.64 104.33 297.46 184.09 364.41C241.51 412.61 324.54 403.56 374.54 348.96C377.07 346.2 386.14 332.95 388.53 332.95H497.03L497 333Z" fill="#5998C9"/>
<path d="M646.73 235.31C655.77 239.23 666.23 247.62 669.87 257.63C675.39 272.77 670.15 294.24 656.67 303.65C646.52 310.74 610.98 308.91 597.46 309.04C518.46 309.78 438.81 308.34 359.57 309.06C352.12 310.21 346.41 321.54 341.52 327.01C298.77 374.77 238.81 373.47 196.49 326.01C194.57 323.86 184.23 313.67 190.5 312.99C202.13 313.43 213.87 312.75 225.55 312.95C237.23 313.15 254.16 315.94 265.24 314.73C276.78 313.47 280.64 302.1 283.72 292.2C290.97 268.94 288.92 251.63 276.83 230.66C274.09 225.9 270.3 219.65 264.53 218.96C246.4 216.81 223.39 220 204.47 219.02C200.13 218.79 195.65 217.2 191.02 217.97C190.72 216.4 191.18 215.66 191.97 214.43C206.48 191.88 225.25 173.67 252.77 169.23C293.82 162.6 320.92 176.59 342.66 210.84C347.33 218.2 351.91 233.42 361.58 234.92L646.74 235.3L646.73 235.31ZM625.73 251.23C623.69 251.65 621.62 253.21 619.98 254.47C600.77 269.24 617.07 297.22 639.2 288.69C644.86 286.51 651.3 277.68 650.81 271.79C649.75 259.13 638.88 248.51 625.73 251.23Z" fill="#B2CE21"/>
<path d="M865.13 107.13C900.25 106.73 935.4 107.21 970.54 107.05C1001.99 106.91 1024.93 107.01 1054.67 119.84C1180.82 174.25 1178.6 362.41 1049.67 410.19C1003.17 427.42 928.92 423.49 878.45 422.07C874.67 421.96 868.82 421.99 865.9 420.6L865.13 107.14V107.13ZM909.64 147.08L908.41 381.06C910.88 383.51 914.28 381.02 916.6 381.09C963.03 382.63 1014.06 387.69 1054.9 361.41C1120.18 319.4 1120.92 214.24 1058.3 169.18C1014.76 137.85 965.96 149.46 916.44 148.04C914.28 147.98 911.25 146.58 909.62 147.07L909.64 147.08Z" fill="#303B48"/>
<path d="M1346.5 421C1345.4 420.66 1344.85 418.7 1344.95 417.55C1344.88 361.85 1345.19 306.15 1345.05 250.45C1344.95 210.61 1343.54 170.58 1345.05 130.54C1345.2 126.6 1344.27 108.62 1345.45 106.94C1347.3 104.3 1354.77 107.14 1357.51 107.09C1368.62 106.88 1376.17 102 1385.03 111.48C1399.38 126.82 1413.41 146.97 1427.03 163.48C1461.87 205.7 1496.92 247.83 1530.03 291.48L1574.5 346.02L1576 107.01H1614.5C1614.61 107.01 1616 108.4 1616 108.51V421.01H1582.5C1580.6 421.01 1573.84 409.88 1571.97 407.54C1517.15 338.54 1463.28 268.3 1406.97 200.54C1402.02 194.59 1395.62 186.49 1390.4 181.11C1389.56 180.24 1389.06 178.76 1387.51 179L1386 421.01H1346.5V421Z" fill="#303B48"/>
<path d="M2528 107V144.5C2528 144.67 2526.46 146.26 2525.98 146.48C2463.92 147.7 2401.61 146.6 2339.45 147.05C2336.96 147.07 2331.65 144.86 2331.18 148.66C2331.07 149.57 2331.99 150.23 2331.99 150.5V242.5C2331.99 242.77 2333.9 244.62 2334.61 244.76L2511.99 245V278.5C2511.99 279.04 2513.59 279.95 2512.55 281.97C2510.93 285.12 2509.28 283 2508.49 283H2331.99V379.5C2331.99 379.61 2333.38 381 2333.49 381H2521.49C2522.99 381 2529.99 382.01 2529.99 383.5V421H2289.99V107.5L2527.99 107H2528Z" fill="#303B48"/>
<path d="M1667 421C1665.9 416.36 1669.29 413.73 1670.73 410.23C1678.39 391.66 1686.92 373.91 1695.19 355.69C1733.25 271.87 1772.41 188.25 1813.66 106.16C1822.59 103.33 1832.47 105.64 1841.45 106.04C1847.63 106.31 1855.97 103.43 1859.84 108.65C1905.02 203.51 1951.19 298.04 1994.89 393.6C1997.61 399.54 2003.95 411.65 2005.52 416.97C2005.92 418.31 2006.15 419.6 2005.99 421L1959.39 420.1C1952.78 405.52 1945.53 391.21 1938.81 376.68C1935.62 369.79 1932.45 358.63 1928.77 352.72C1927.99 351.47 1927.48 350.92 1926.04 350.45L1770.61 349.93L1768.97 347.55L1785.48 311.01H1908.98C1909.56 307.88 1906.9 306.1 1905.8 303.69C1890.6 270.46 1876.23 236.79 1860.84 203.65C1853.47 187.78 1844.96 166.62 1836.53 151.96C1831.73 143.62 1832.51 154.95 1831.53 158.06C1792.62 240.82 1754.29 323.9 1716.8 407.33C1715.43 410.38 1712.8 421 1709.47 421H1666.97H1667Z" fill="#303B48"/>
<path d="M767.58 129.42C832.68 181.44 801.54 298.94 716 305L716.02 307.48L810 419.52C809.25 423.91 804.69 421.05 801.55 420.96C788.44 420.57 771.94 422.51 759.48 421.03C757.26 420.77 755.5 420.04 753.65 418.86C726.26 387.41 699.25 355.62 674.18 322.24C673.05 317.65 680.07 313.24 682.44 309.94C691.55 297.26 694.08 283.21 695.44 267.94C696.63 266.17 703.01 267.27 705.49 266.99C774.37 259.28 779.25 154.74 704.49 148.02C670 144.92 633.29 148.62 598.47 148.05C594.82 147.99 590.45 144.85 589.1 150.43L588.56 210.05L549.51 210C547.18 209.76 546.41 207.46 546.08 205.43C548.12 175.42 543.3 142.04 545.97 112.45C546.75 103.75 548.58 107.04 554.47 107.05C603.13 107.17 657.65 103.82 705.51 107C727.23 108.45 750.53 115.77 767.6 129.41L767.58 129.42Z" fill="#303B48"/>
<path d="M2244 107V145.5C2244 145.61 2242.61 147 2242.5 147H2133.5L2131.5 421H2090V147H1981.5C1980.99 147 1979.34 144.34 1979.29 143.38C1981.61 132.19 1978.85 119.58 1979.35 108.63C1979.39 107.81 1979.74 106.18 1980.66 105.96L2244 107.01V107Z" fill="#303B48"/>
<path d="M1215 107.5C1215.93 104.51 1222.06 106.97 1224.46 107.04C1231.59 107.26 1239.41 107.24 1246.55 107.04C1250.33 106.94 1256.16 103.97 1257 108.49L1258.1 419.5L1257.89 420.87C1255.31 422.83 1252.72 420.87 1250.51 421C1240.87 421.56 1230.2 423.03 1220.45 422.05C1218.97 421.9 1215.01 421.28 1215.01 419.49V107.5H1215Z" fill="#303B48"/>
<path d="M547 333.5C547.74 331.09 556.97 333.13 559.55 333.05C567.48 332.81 572.45 332.7 580.5 333.01C585.49 333.2 589.47 328.64 589.81 338.5C590.59 361.13 589.68 389.57 588.91 412.51C588.85 414.36 591.03 421.01 588.5 421.01H548.5C548.39 421.01 547 419.62 547 419.51V333.51V333.5Z" fill="#303B48"/>
<path d="M625.73 251.23C638.87 248.51 649.75 259.13 650.81 271.79C651.3 277.68 644.86 286.51 639.2 288.69C617.07 297.22 600.77 269.24 619.98 254.47C621.62 253.21 623.69 251.65 625.73 251.23Z" fill="#FDFDFD"/>
</svg>
